<mxfile host="app.diagrams.net" agent="Mozilla/5.0 (Windows NT 10.0; Win64; x64; rv:143.0) Gecko/20100101 Firefox/143.0" version="28.1.2">
  <diagram name="Page-1" id="vB0yd63DsiyhTFjvneYg">
    <mxGraphModel dx="1722" dy="439" grid="1" gridSize="10" guides="1" tooltips="1" connect="1" arrows="1" fold="1" page="1" pageScale="1" pageWidth="850" pageHeight="1100" math="0" shadow="0">
      <root>
        <mxCell id="0" />
        <mxCell id="1" parent="0" />
        <mxCell id="RVBvJRBe-ZhO-4mgax2n-3" value="" style="edgeStyle=orthogonalEdgeStyle;rounded=1;orthogonalLoop=1;jettySize=auto;html=1;labelBackgroundColor=none;strokeColor=#788AA3;fontColor=default;" edge="1" parent="1" source="RVBvJRBe-ZhO-4mgax2n-1" target="RVBvJRBe-ZhO-4mgax2n-2">
          <mxGeometry relative="1" as="geometry" />
        </mxCell>
        <mxCell id="RVBvJRBe-ZhO-4mgax2n-1" value="Contoller" style="rounded=1;whiteSpace=wrap;html=1;labelBackgroundColor=none;fillColor=#B2C9AB;strokeColor=#788AA3;fontColor=#46495D;" vertex="1" parent="1">
          <mxGeometry x="-780" y="60" width="120" height="60" as="geometry" />
        </mxCell>
        <mxCell id="RVBvJRBe-ZhO-4mgax2n-5" value="" style="edgeStyle=orthogonalEdgeStyle;rounded=0;orthogonalLoop=1;jettySize=auto;html=1;strokeColor=#788AA3;fontColor=#46495D;fillColor=#B2C9AB;" edge="1" parent="1" source="RVBvJRBe-ZhO-4mgax2n-2" target="RVBvJRBe-ZhO-4mgax2n-4">
          <mxGeometry relative="1" as="geometry" />
        </mxCell>
        <mxCell id="RVBvJRBe-ZhO-4mgax2n-2" value="&lt;div&gt;Service&lt;/div&gt;&lt;div&gt;&lt;span style=&quot;color: rgb(255, 255, 255);&quot;&gt;@Transactional&lt;/span&gt;&lt;/div&gt;" style="whiteSpace=wrap;html=1;rounded=1;labelBackgroundColor=none;fillColor=#B2C9AB;strokeColor=#788AA3;fontColor=#46495D;" vertex="1" parent="1">
          <mxGeometry x="-580" y="60" width="170" height="60" as="geometry" />
        </mxCell>
        <mxCell id="RVBvJRBe-ZhO-4mgax2n-4" value="&lt;div&gt;&lt;b&gt;AOP Proxy&lt;/b&gt;&lt;/div&gt;&lt;div&gt;Transactional Manager&lt;/div&gt;&lt;div&gt;&lt;br&gt;&lt;/div&gt;&amp;nbsp;Begin Tx&amp;nbsp;&lt;br&gt;&lt;div&gt;&amp;nbsp;&lt;/div&gt;&lt;div&gt;Isolation&lt;/div&gt;&lt;div&gt;&amp;nbsp; &amp;nbsp;&lt;/div&gt;&lt;div&gt;Propagate&lt;/div&gt;" style="whiteSpace=wrap;html=1;fillColor=#B2C9AB;strokeColor=#788AA3;fontColor=#46495D;rounded=1;labelBackgroundColor=none;dashed=1;dashPattern=1 4;" vertex="1" parent="1">
          <mxGeometry x="-582.5" y="210" width="175" height="140" as="geometry" />
        </mxCell>
      </root>
    </mxGraphModel>
  </diagram>
</mxfile>
